<svg width="169" height="170" viewBox="0 0 169 170" fill="none" xmlns="http://www.w3.org/2000/svg">
<circle cx="84.2889" cy="84.2889" r="47.2889" fill="#FBCC56"/>
<path d="M69.5618 140.248C79.3474 142.87 89.6509 142.87 99.4365 140.248C109.222 137.626 118.145 132.474 125.309 125.311L84.4992 84.5011L69.5618 140.248Z" fill="#62C29D"/>
<path d="M121.781 121.781C128.325 115.237 133.032 107.086 135.427 98.146C137.822 89.2063 137.822 79.7937 135.427 70.854L84.4995 84.5L121.781 121.781Z" fill="#FCA3CD"/>
<path d="M68.5802 143.914C60.778 141.823 53.4639 138.216 47.0557 133.299C40.6475 128.382 35.2705 122.25 31.2318 115.255L84.4997 84.5009L68.5802 143.914Z" fill="#FC6433"/>
<path d="M27.9861 117.134C23.7014 109.713 20.9203 101.52 19.8017 93.024C18.6832 84.5278 19.2491 75.8944 21.467 67.6168L84.4997 84.5064L27.9861 117.134Z" fill="#171D97"/>
<path d="M17.8567 66.6479C21.7876 51.9775 30.4495 39.0141 42.4989 29.7682C54.5483 20.5224 69.3119 15.5109 84.4999 15.5109L84.4999 84.5049L17.8567 66.6479Z" fill="#9F55FF"/>
<circle cx="84" cy="84" r="30" fill="#FBFCFC"/>
</svg>
