<svg width="14" height="13" viewBox="0 0 14 13" fill="none" xmlns="http://www.w3.org/2000/svg">
<path fill-rule="evenodd" clip-rule="evenodd" d="M13.3632 0.0517801C13.2757 0.38622 13.1858 0.720659 13.1017 1.05595C12.9141 1.80886 12.7291 2.56347 12.5356 3.3461C12.2512 3.07362 11.9813 2.81388 11.7071 2.55074C11.3862 2.88433 11.0722 3.20944 10.7598 3.53539C9.63934 4.70168 8.51888 5.86798 7.39842 7.03428C7.09709 7.34749 6.7601 7.34919 6.45792 7.03682C5.75339 6.30852 5.05055 5.57938 4.34687 4.85108C4.31377 4.81713 4.28406 4.77978 4.21785 4.70508C4.18814 4.75771 4.17286 4.80185 4.144 4.8324C3.11521 5.91806 2.08388 7.00117 1.05595 8.08768C0.870053 8.28461 0.657845 8.38222 0.390463 8.29479C0.177406 8.22603 0.0670578 8.05797 0 7.85594C0 7.78634 0 7.71674 0 7.64713C0.0925227 7.50792 0.166371 7.35174 0.279266 7.23205C1.43707 6.00464 2.60082 4.78402 3.76118 3.55916C3.9216 3.38939 4.1092 3.28074 4.34008 3.3461C4.46995 3.3826 4.60322 3.46493 4.69829 3.56255C5.41131 4.2883 6.11499 5.02339 6.82207 5.75508C6.85177 5.78649 6.87809 5.82129 6.91798 5.86883C8.24131 4.49117 9.55276 3.12625 10.8735 1.75114C10.5985 1.48631 10.3311 1.22911 10.0468 0.954936C10.3608 0.864111 10.6545 0.77923 10.9474 0.694347C11.7266 0.468557 12.5067 0.243617 13.2868 0.0178273C13.3114 0.0110367 13.3369 0.00594183 13.3623 0C13.3632 0.0169766 13.3632 0.0339546 13.3632 0.0517801Z" fill="black"/>
<path fill-rule="evenodd" clip-rule="evenodd" d="M12.5053 12.2626C11.9239 12.2626 11.3602 12.2626 10.7771 12.2626C10.7771 12.2133 10.7771 12.1675 10.7771 12.1216C10.7771 9.66512 10.7779 7.20945 10.7754 4.75293C10.7754 4.66296 10.8009 4.59929 10.8628 4.53563C11.1514 4.24109 11.4358 3.9423 11.7295 3.63672C11.9833 3.88033 12.232 4.11461 12.4748 4.35653C12.5045 4.38624 12.5036 4.45245 12.5045 4.50253C12.5062 5.92432 12.5053 7.34527 12.5053 8.76706C12.5053 9.87564 12.5053 10.9842 12.5053 12.0928C12.5053 12.1454 12.5053 12.1972 12.5053 12.2626Z" fill="black"/>
<path fill-rule="evenodd" clip-rule="evenodd" d="M10.3784 12.2642C9.80973 12.2642 9.24611 12.2642 8.66211 12.2642C8.66211 12.2167 8.66211 12.1709 8.66211 12.125C8.66211 10.3994 8.66211 8.67368 8.66381 6.94716C8.66381 6.89453 8.67145 6.82662 8.7037 6.79182C9.25459 6.21207 9.80973 5.63656 10.3793 5.04492C10.3784 7.459 10.3784 9.8544 10.3784 12.2642Z" fill="black"/>
<path fill-rule="evenodd" clip-rule="evenodd" d="M4.0361 6.07812C4.0361 8.15267 4.0361 10.2026 4.0361 12.261C3.46229 12.261 2.89442 12.261 2.31637 12.261C2.31382 12.222 2.30873 12.1838 2.30873 12.1464C2.30873 10.7594 2.30788 9.37244 2.31043 7.9863C2.31043 7.93198 2.33165 7.86322 2.3673 7.82502C2.90037 7.258 3.43683 6.69438 3.97329 6.13075C3.98772 6.11547 4.00554 6.10359 4.0361 6.07812Z" fill="black"/>
<path fill-rule="evenodd" clip-rule="evenodd" d="M4.43555 6.05664C4.47205 6.09059 4.49072 6.10672 4.50855 6.12455C5.04416 6.6695 5.58062 7.2153 6.11454 7.76194C6.1383 7.78656 6.15613 7.829 6.15613 7.86296C6.15783 9.31446 6.15783 10.766 6.15698 12.2175C6.15698 12.2293 6.15104 12.2421 6.14594 12.2599C5.57807 12.2599 5.01106 12.2599 4.43555 12.2599C4.43555 10.1981 4.43555 8.14052 4.43555 6.05664Z" fill="black"/>
<path fill-rule="evenodd" clip-rule="evenodd" d="M6.55469 7.98163C6.89337 8.075 7.22611 8.07076 7.51302 7.8925C7.78549 7.72273 8.02062 7.4927 8.26424 7.29492C8.26424 8.92638 8.26424 10.5884 8.26424 12.2589C7.69891 12.2589 7.13189 12.2589 6.55469 12.2589C6.55469 10.8388 6.55469 9.41955 6.55469 7.98163Z" fill="black"/>
<path fill-rule="evenodd" clip-rule="evenodd" d="M1.9181 12.2624C1.34175 12.2624 0.773878 12.2624 0.199219 12.2624C0.199219 11.1928 0.199219 10.1301 0.199219 9.04358C0.957226 9.2456 1.46313 8.85345 1.9181 8.27539C1.9181 9.63182 1.9181 10.9407 1.9181 12.2624Z" fill="black"/>
</svg>
