<svg width="13" height="17" viewBox="0 0 13 17" fill="none" xmlns="http://www.w3.org/2000/svg">
<path fill-rule="evenodd" clip-rule="evenodd" d="M6.03413 0C6.25508 0 6.47603 0 6.69698 0C6.96772 0.0456424 7.24262 0.0767628 7.50921 0.14004C9.68967 0.655591 11.2706 2.60162 11.3079 4.84121C11.3152 5.28829 11.312 5.73642 11.3141 6.18351C11.3141 6.2416 11.3141 6.29969 11.3141 6.36607C11.6606 6.36607 11.9811 6.36504 12.3006 6.36607C12.5921 6.36815 12.7301 6.50197 12.7301 6.79034C12.7311 9.70108 12.7322 12.6118 12.729 15.5226C12.729 16.0039 12.5506 16.4167 12.1471 16.6885C11.9479 16.8223 11.6979 16.8815 11.4708 16.9738C8.06729 16.9738 4.66279 16.9738 1.25932 16.9738C1.10787 16.9261 0.946044 16.8981 0.806005 16.8275C0.252072 16.5495 0 16.0838 0 15.4717C0 12.6046 0 9.73843 0 6.87125C0 6.46981 0.107883 6.364 0.513478 6.364C3.33604 6.364 6.15861 6.364 8.98118 6.364C9.04549 6.364 9.11084 6.364 9.19175 6.364C9.19175 5.87853 9.19279 5.4107 9.19175 4.94286C9.18864 4.29661 8.99881 3.70948 8.58907 3.21053C7.86501 2.32776 6.92623 1.95847 5.80592 2.18772C4.68768 2.41593 3.95637 3.11509 3.64828 4.2157C3.55803 4.53831 3.56529 4.891 3.54144 5.2302C3.52173 5.51339 3.40347 5.65343 3.1265 5.65758C2.68979 5.66381 2.25411 5.66381 1.8174 5.65758C1.55184 5.65343 1.42633 5.51754 1.41803 5.25406C1.39002 4.34432 1.54665 3.47193 1.98129 2.66489C2.64933 1.42321 3.65761 0.589202 5.01548 0.19813C5.34638 0.103733 5.69389 0.0653516 6.03413 0ZM6.34948 14.1481C6.55902 14.1481 6.76959 14.1481 6.97913 14.1481C6.99054 14.1481 7.00092 14.1481 7.01233 14.1481C7.31108 14.1346 7.45112 13.9697 7.41792 13.672C7.3505 13.0682 7.281 12.4656 7.21979 11.8618C7.21357 11.8037 7.24365 11.7218 7.28619 11.6824C7.64821 11.3494 7.81315 10.9479 7.76439 10.4542C7.68452 9.63677 6.85569 9.03201 6.06214 9.23117C5.50094 9.37225 5.12751 9.72701 4.99577 10.2924C4.86921 10.8359 5.03 11.3038 5.447 11.6834C5.48953 11.7218 5.51754 11.8048 5.51236 11.8629C5.45115 12.4666 5.38165 13.0703 5.31423 13.673C5.28103 13.9697 5.42107 14.1388 5.72086 14.146C5.9304 14.1522 6.13994 14.1481 6.34948 14.1481Z" fill="black"/>
</svg>
