<svg width="18" height="16" viewBox="0 0 18 16" fill="none" xmlns="http://www.w3.org/2000/svg">
<path fill-rule="evenodd" clip-rule="evenodd" d="M2.29034 13.5934C2.52472 14.5575 2.32692 15.3234 1.75654 15.7161C1.23223 16.0767 0.58327 15.8768 0.235083 15.2466C-0.118524 14.6092 -0.0683962 13.7541 0.352951 13.1935C0.806815 12.5918 1.42868 12.5793 2.06544 13.1739C2.74962 12.524 3.43922 11.8688 4.12882 11.2136C4.47024 10.8887 4.81029 10.5584 5.15577 10.2388C5.26687 10.1371 5.31564 10.0585 5.26416 9.85319C5.10835 9.21584 5.22351 8.64276 5.60151 8.19107C5.96595 7.75725 6.39814 7.66263 6.84794 7.90007C7.31806 8.15001 7.56599 8.63383 7.60392 9.30867C7.60934 9.40686 7.67302 9.55861 7.73399 9.58182C8.64984 9.93531 9.57112 10.2709 10.4856 10.6084C10.9761 9.62824 11.6223 9.51398 12.2889 9.95674C13.4635 8.32497 14.6408 6.68785 15.8304 5.03288C15.6136 4.57763 15.4944 4.07774 15.6651 3.57786C15.7735 3.26186 15.9482 2.94408 16.1582 2.73877C16.6189 2.28708 17.2678 2.41563 17.6661 2.9655C18.0631 3.5118 18.1119 4.35268 17.7813 4.97039C17.4114 5.65952 16.8343 5.81127 16.1108 5.38994C14.9348 7.02527 13.7521 8.66954 12.5653 10.3192C12.7793 10.7619 12.866 11.2243 12.7536 11.7313C12.5883 12.4776 12.0382 12.9543 11.4448 12.8614C10.8853 12.7739 10.4396 12.1455 10.4057 11.3903C10.3989 11.2439 10.4206 11.1118 10.258 11.0547C9.34351 10.728 8.43307 10.3816 7.5267 10.0442C6.82626 11.0958 6.27756 11.2261 5.54731 10.4959C4.46753 11.5224 3.38503 12.5526 2.29034 13.5934Z" fill="black"/>
<path d="M11.0311 0.787534C11.0812 0.584707 11.3695 0.584707 11.4195 0.787534L11.6079 1.55135C11.6299 1.64069 11.71 1.70347 11.802 1.70347H12.5065C12.6868 1.70347 12.775 1.92326 12.6448 2.04794L11.9885 2.67627C11.9368 2.72577 11.9155 2.79912 11.9327 2.86861L12.1602 3.79127C12.2081 3.98567 11.9723 4.12208 11.8277 3.98362L11.3636 3.53937C11.2863 3.46532 11.1644 3.46532 11.087 3.53937L10.623 3.98362C10.4784 4.12208 10.2426 3.98567 10.2905 3.79127L10.518 2.86861C10.5351 2.79912 10.5138 2.72577 10.4621 2.67627L9.80585 2.04794C9.67562 1.92326 9.76387 1.70347 9.94416 1.70347H10.6486C10.7406 1.70347 10.8208 1.64069 10.8428 1.55135L11.0311 0.787534Z" fill="black"/>
<path d="M2.70942 5.32345C2.73443 5.22204 2.8786 5.22204 2.90361 5.32345L2.99777 5.70536C3.00879 5.75003 3.04886 5.78142 3.09487 5.78142H3.4471C3.53724 5.78142 3.58137 5.89132 3.51625 5.95366L3.18811 6.26782C3.16226 6.29257 3.15161 6.32925 3.16017 6.36399L3.27393 6.82532C3.29789 6.92252 3.17999 6.99073 3.10768 6.9215L2.87567 6.69937C2.837 6.66235 2.77603 6.66235 2.73736 6.69937L2.50535 6.9215C2.43304 6.99073 2.31514 6.92252 2.3391 6.82532L2.45285 6.36399C2.46142 6.32925 2.45077 6.29257 2.42492 6.26782L2.09677 5.95366C2.03166 5.89132 2.07578 5.78142 2.16593 5.78142H2.51816C2.56417 5.78142 2.60424 5.75003 2.61525 5.70536L2.70942 5.32345Z" fill="black"/>
</svg>
