<svg width="24" height="24" viewBox="0 0 24 24" fill="none" xmlns="http://www.w3.org/2000/svg">
<g clip-path="url(#clip0_65_366)">
<path d="M5.31883 14.5035L4.48344 17.6222L1.43009 17.6868C0.517587 15.9943 0 14.0578 0 12.0001C0 10.0102 0.483931 8.13372 1.34173 6.48145H1.34239L4.06073 6.97981L5.25152 9.68184C5.00229 10.4084 4.86645 11.1884 4.86645 12.0001C4.86654 12.8809 5.0261 13.7249 5.31883 14.5035Z" fill="#FBBB00"/>
<path d="M23.79 9.7583C23.9278 10.4842 23.9997 11.2339 23.9997 12C23.9997 12.8591 23.9094 13.6972 23.7373 14.5055C23.1531 17.2562 21.6268 19.6582 19.5123 21.3579L19.5117 21.3573L16.0878 21.1826L15.6032 18.1575C17.0062 17.3347 18.1027 16.047 18.6803 14.5055H12.2637V9.7583H23.79Z" fill="#518EF8"/>
<path d="M19.5117 21.3572L19.5123 21.3578C17.4559 23.0107 14.8436 23.9997 11.9999 23.9997C7.43009 23.9997 3.45698 21.4455 1.43018 17.6867L5.31892 14.5034C6.3323 17.208 8.94128 19.1332 11.9999 19.1332C13.3146 19.1332 14.5463 18.7778 15.6032 18.1574L19.5117 21.3572Z" fill="#28B446"/>
<path d="M19.6594 2.76259L15.7719 5.94517C14.6781 5.26146 13.3851 4.8665 11.9999 4.8665C8.87202 4.8665 6.21425 6.88008 5.25163 9.68162L1.34245 6.48123H1.3418C3.33893 2.63073 7.36215 0 11.9999 0C14.9115 0 17.5811 1.03714 19.6594 2.76259Z" fill="#F14336"/>
</g>
<defs>
<clipPath id="clip0_65_366">
<rect width="23.9997" height="23.9997" fill="white"/>
</clipPath>
</defs>
</svg>
