<svg width="22" height="22" viewBox="0 0 22 22" fill="none" xmlns="http://www.w3.org/2000/svg">
<path d="M11.1468 9.96384C11.0552 9.95467 10.9452 9.95467 10.8443 9.96384C8.66268 9.89051 6.93018 8.10301 6.93018 5.90301C6.93018 3.65717 8.74518 1.83301 11.0002 1.83301C13.246 1.83301 15.0702 3.65717 15.0702 5.90301C15.061 8.10301 13.3285 9.89051 11.1468 9.96384Z" fill='transparent' stroke-width="1.5" stroke-linecap="round" stroke-linejoin="round"/>
<path d="M6.56316 13.347C4.34483 14.832 4.34483 17.252 6.56316 18.7278C9.084 20.4145 13.2182 20.4145 15.739 18.7278C17.9573 17.2428 17.9573 14.8228 15.739 13.347C13.2273 11.6695 9.09316 11.6695 6.56316 13.347Z" fill='transparent' stroke-width="1.5" stroke-linecap="round" stroke-linejoin="round"/>
</svg>
