<svg width="23" height="21" viewBox="0 0 23 21" fill="none" xmlns="http://www.w3.org/2000/svg">
<path d="M13.591 20.85H13.5909C13.4734 20.8501 13.357 20.8269 13.2484 20.7817C13.1398 20.7366 13.041 20.6704 12.9578 20.5868C12.8746 20.5033 12.8086 20.4041 12.7635 20.2948C12.7185 20.1856 12.6952 20.0685 12.6952 19.9502V15.7503V15.6003H12.5452H10.4548H10.3048V15.7503V19.9502C10.3048 20.0685 10.2815 20.1856 10.2365 20.2948C10.1914 20.4041 10.1254 20.5033 10.0422 20.5868C9.95895 20.6704 9.86021 20.7366 9.75159 20.7817C9.64298 20.8269 9.52659 20.8501 9.40908 20.85H9.40901H3.13654C2.89932 20.85 2.67168 20.7554 2.50374 20.5867C2.33578 20.418 2.2413 20.189 2.2413 19.9502V9.45027V9.30027H2.0913H1.04605H1.04593C0.855595 9.30041 0.670105 9.23958 0.516436 9.12651C0.362756 9.01343 0.248886 8.85398 0.191512 8.67126C0.134136 8.48853 0.136288 8.29217 0.197652 8.11076C0.259014 7.92936 0.376345 7.77247 0.532457 7.66283L0.532516 7.66279L10.9869 0.312428C11.1374 0.206675 11.3165 0.15 11.5 0.15C11.6835 0.15 11.8626 0.206671 12.013 0.312417C12.013 0.312421 12.0131 0.312424 12.0131 0.312427L22.4675 7.66279L22.4675 7.66283C22.6237 7.77247 22.741 7.92936 22.8023 8.11076C22.8637 8.29217 22.8659 8.48853 22.8085 8.67126C22.7511 8.85398 22.6372 9.01343 22.4836 9.12651C22.3299 9.23958 22.1444 9.30041 21.9541 9.30027H21.954H20.9087H20.7587V9.45027V19.9502C20.7587 20.189 20.6642 20.418 20.4963 20.5867C20.3283 20.7554 20.1007 20.85 19.8635 20.85H13.591ZM14.4862 18.9003V19.0503H14.6362H18.8177H18.9677V18.9003V8.39993V8.39974C18.9674 8.16934 19.0554 7.94779 19.2133 7.78101L19.3326 7.65501L19.1907 7.5552L11.5863 2.20706L11.5 2.14637L11.4137 2.20706L3.80932 7.5552L3.6674 7.65501L3.78668 7.78101C3.94456 7.94779 4.03258 8.16934 4.03228 8.39974V8.39993V18.9003V19.0503H4.18228H8.36377H8.51377V18.9003V14.7C8.51377 14.4611 8.60824 14.2322 8.77621 14.0635C8.94415 13.8948 9.17179 13.8001 9.40901 13.8001H13.591C13.8282 13.8001 14.0558 13.8948 14.2238 14.0635C14.3918 14.2322 14.4862 14.4611 14.4862 14.7V18.9003Z"  stroke="white" stroke-width="0.3"/>
</svg>
