<svg width="21" height="21" viewBox="0 0 21 21" fill="none" xmlns="http://www.w3.org/2000/svg">
<path d="M19.2497 14.1949C18.6453 15.6242 17.7 16.8836 16.4965 17.8631C15.2929 18.8426 13.8678 19.5124 12.3456 19.8139C10.8234 20.1154 9.25049 20.0394 7.76444 19.5926C6.2784 19.1458 4.92443 18.3417 3.82092 17.2507C2.71741 16.1597 1.89795 14.815 1.43418 13.3342C0.970417 11.8534 0.876468 10.2814 1.16055 8.7559C1.44463 7.23036 2.09809 5.79763 3.0638 4.58298C4.02951 3.36833 5.27807 2.40873 6.70031 1.78809" fill='transparent' stroke-width="1.5" stroke-linecap="round" stroke-linejoin="round"/>
<path d="M20.0004 10.4999C20.0004 9.25234 19.7547 8.01702 19.2772 6.86444C18.7998 5.71186 18.1001 4.6646 17.2179 3.78245C16.3358 2.90031 15.2885 2.20055 14.1359 1.72314C12.9834 1.24572 11.748 1 10.5005 1V10.4999H20.0004Z" fill='transparent'  stroke-width="1.5" stroke-linecap="round" stroke-linejoin="round"/>
</svg>
