<svg width="160" height="130" viewBox="0 0 160 130" fill="none" xmlns="http://www.w3.org/2000/svg">
<rect width="160" height="130" rx="16" fill="url(#paint0_linear_22_359)"/>
<mask id="mask0_22_359" style="mask-type:alpha" maskUnits="userSpaceOnUse" x="0" y="0" width="160" height="130">
<rect width="160" height="130" rx="16" fill="url(#paint1_linear_22_359)"/>
</mask>
<g mask="url(#mask0_22_359)">
<path style="mix-blend-mode:color-burn" opacity="0.55" d="M113.337 37.0789C120.488 37.9593 127.385 40.7182 134.588 40.8453C141.79 40.9724 149.932 37.3255 151.548 30.2693C152.529 25.9817 150.935 21.1706 152.922 17.2486C155.075 12.9988 160.765 11.2622 162.386 6.78041C164.114 2.00512 159.833 -3.28005 154.897 -4.38017C149.961 -5.4803 144.88 -3.59481 140.306 -1.43078C135.732 0.733241 131.127 3.26122 126.079 3.53925C115.59 4.11704 106.074 -5.11841 95.7053 -3.4231C90.189 -2.52084 85.5229 1.48326 82.6951 6.32902C79.8672 11.1748 78.6591 16.7993 77.9603 22.3731C77.246 28.0735 77.0965 34.1832 79.8771 39.2031C82.9921 44.8274 90.0932 47.8332 94.7191 43.2733C99.9917 38.0754 105.828 36.1548 113.337 37.0789Z" fill="url(#paint2_linear_22_359)"/>
<path style="mix-blend-mode:color-burn" opacity="0.55" d="M67.3365 82.9739C59.8241 77.9384 53.6594 70.9419 45.6621 66.7209C37.6648 62.5 26.4785 61.9752 20.6724 68.9654C17.1451 73.2132 16.2067 79.5059 11.7598 82.7746C6.94121 86.3167 -0.417044 85.0401 -4.7713 89.1429C-9.41112 93.5144 -7.60786 101.86 -2.70107 105.887C2.20572 109.915 8.96575 110.68 15.3158 110.845C21.6658 111.011 28.2563 110.787 34.0689 113.334C46.1471 118.626 51.5788 134.361 64.1549 138.334C70.8459 140.446 78.3408 138.603 84.2529 134.775C90.165 130.948 94.7035 125.331 98.6425 119.482C102.671 113.5 106.298 106.74 106.025 99.5416C105.721 91.4765 99.4671 84.088 91.7024 86.5771C82.8521 89.4146 75.226 88.2614 67.3365 82.9739Z" fill="url(#paint3_linear_22_359)"/>
</g>
<path opacity="0.1" d="M30.9337 13C30.7494 28.1035 30.602 28.2801 18 28.5C30.602 28.7199 30.7494 28.8965 30.9337 44C31.118 28.8965 31.2654 28.7199 43.8673 28.5C31.2654 28.2801 31.118 28.1035 30.9337 13Z" fill="white"/>
<defs>
<linearGradient id="paint0_linear_22_359" x1="8.5" y1="11" x2="147" y2="130" gradientUnits="userSpaceOnUse">
<stop stop-color="#F88F1A"/>
<stop offset="1" stop-color="#F2C98F"/>
</linearGradient>
<linearGradient id="paint1_linear_22_359" x1="8.5" y1="11" x2="147" y2="130" gradientUnits="userSpaceOnUse">
<stop stop-color="#F88F1A"/>
<stop offset="1" stop-color="#F2C98F"/>
</linearGradient>
<linearGradient id="paint2_linear_22_359" x1="111.835" y1="58.76" x2="121.04" y2="-3.82666" gradientUnits="userSpaceOnUse">
<stop stop-color="#B8B8B8"/>
<stop offset="0.212" stop-color="#CECECE"/>
<stop offset="0.515" stop-color="#E9E9E9"/>
<stop offset="0.785" stop-color="#F9F9F9"/>
<stop offset="0.995" stop-color="white"/>
</linearGradient>
<linearGradient id="paint3_linear_22_359" x1="81.2965" y1="59.5346" x2="35.5437" y2="124.44" gradientUnits="userSpaceOnUse">
<stop stop-color="#B8B8B8"/>
<stop offset="0.212" stop-color="#CECECE"/>
<stop offset="0.515" stop-color="#E9E9E9"/>
<stop offset="0.785" stop-color="#F9F9F9"/>
<stop offset="0.995" stop-color="white"/>
</linearGradient>
</defs>
</svg>
