<svg width="22" height="22" viewBox="0 0 22 22" fill="none" xmlns="http://www.w3.org/2000/svg">
<path d="M7.94922 13.1355C7.94922 14.318 8.85672 15.2714 9.98422 15.2714H12.2851C13.2659 15.2714 14.0634 14.4372 14.0634 13.4105C14.0634 12.2922 13.5776 11.898 12.8534 11.6414L9.15922 10.358C8.43505 10.1014 7.94922 9.70719 7.94922 8.58886C7.94922 7.56219 8.74672 6.72803 9.72755 6.72803H12.0284C13.1559 6.72803 14.0634 7.68136 14.0634 8.86386" stroke="#292D32" stroke-width="1.5" stroke-linecap="round" stroke-linejoin="round"/>
<path d="M11 5.5V16.5" stroke="#292D32" stroke-width="1.5" stroke-linecap="round" stroke-linejoin="round"/>
<path d="M13.7497 20.1668H8.24967C3.66634 20.1668 1.83301 18.3335 1.83301 13.7502V8.25016C1.83301 3.66683 3.66634 1.8335 8.24967 1.8335H13.7497C18.333 1.8335 20.1663 3.66683 20.1663 8.25016V13.7502C20.1663 18.3335 18.333 20.1668 13.7497 20.1668Z" stroke="#292D32" stroke-width="1.5" stroke-linecap="round" stroke-linejoin="round"/>
</svg>
