<svg width="22" height="22" viewBox="0 0 22 22" fill="none" xmlns="http://www.w3.org/2000/svg">
<path d="M11.1464 9.96433C11.0547 9.95516 10.9447 9.95516 10.8439 9.96433C8.66219 9.891 6.92969 8.1035 6.92969 5.9035C6.92969 3.65766 8.74469 1.8335 10.9997 1.8335C13.2455 1.8335 15.0697 3.65766 15.0697 5.9035C15.0605 8.1035 13.328 9.891 11.1464 9.96433Z" stroke="#292D32" stroke-width="1.5" stroke-linecap="round" stroke-linejoin="round"/>
<path d="M6.56316 13.3465C4.34483 14.8315 4.34483 17.2515 6.56316 18.7273C9.084 20.414 13.2182 20.414 15.739 18.7273C17.9573 17.2423 17.9573 14.8223 15.739 13.3465C13.2273 11.669 9.09316 11.669 6.56316 13.3465Z" stroke="#292D32" stroke-width="1.5" stroke-linecap="round" stroke-linejoin="round"/>
</svg>
