<svg width="22" height="22" viewBox="0 0 22 22" fill="none" xmlns="http://www.w3.org/2000/svg">
<path d="M18.3053 9.1665H3.63867V16.4998C3.63867 19.2498 4.55534 20.1665 7.30534 20.1665H14.6387C17.3887 20.1665 18.3053 19.2498 18.3053 16.4998V9.1665Z" stroke="#292D32" stroke-width="1.5" stroke-miterlimit="10" stroke-linecap="round" stroke-linejoin="round"/>
<path d="M19.7087 6.41683V7.3335C19.7087 8.34183 19.2228 9.16683 17.8753 9.16683H4.12533C2.72283 9.16683 2.29199 8.34183 2.29199 7.3335V6.41683C2.29199 5.4085 2.72283 4.5835 4.12533 4.5835H17.8753C19.2228 4.5835 19.7087 5.4085 19.7087 6.41683Z" stroke="#292D32" stroke-width="1.5" stroke-miterlimit="10" stroke-linecap="round" stroke-linejoin="round"/>
<path d="M10.6699 4.58316H5.60988C5.29822 4.24399 5.30738 3.72149 5.63738 3.39149L6.93905 2.08982C7.27822 1.75066 7.83738 1.75066 8.17655 2.08982L10.6699 4.58316Z" stroke="#292D32" stroke-width="1.5" stroke-miterlimit="10" stroke-linecap="round" stroke-linejoin="round"/>
<path d="M16.3813 4.58316H11.3213L13.8146 2.08982C14.1538 1.75066 14.713 1.75066 15.0521 2.08982L16.3538 3.39149C16.6838 3.72149 16.693 4.24399 16.3813 4.58316Z" stroke="#292D32" stroke-width="1.5" stroke-miterlimit="10" stroke-linecap="round" stroke-linejoin="round"/>
<path d="M8.19531 9.1665V13.8782C8.19531 14.6115 9.00198 15.0423 9.61615 14.6482L10.4778 14.0798C10.7895 13.8782 11.1836 13.8782 11.4861 14.0798L12.302 14.6298C12.907 15.0332 13.7228 14.6023 13.7228 13.869V9.1665H8.19531Z" stroke="#292D32" stroke-width="1.5" stroke-miterlimit="10" stroke-linecap="round" stroke-linejoin="round"/>
</svg>
