<svg width="22" height="22" viewBox="0 0 22 22" fill="none" xmlns="http://www.w3.org/2000/svg">
<path d="M9.61598 2.04418L5.04181 3.76751C3.98764 4.16168 3.12598 5.40835 3.12598 6.52668V13.3375C3.12598 14.4192 3.84098 15.84 4.71181 16.4908L8.65348 19.4333C9.94598 20.405 12.0726 20.405 13.3651 19.4333L17.3068 16.4908C18.1776 15.84 18.8926 14.4192 18.8926 13.3375V6.52668C18.8926 5.39918 18.031 4.15251 16.9768 3.75835L12.4026 2.04418C11.6235 1.76001 10.3768 1.76001 9.61598 2.04418Z" stroke="#292D32" stroke-width="1.5" stroke-linecap="round" stroke-linejoin="round"/>
<path d="M11.0003 11.4582C12.0128 11.4582 12.8337 10.6374 12.8337 9.62484C12.8337 8.61232 12.0128 7.7915 11.0003 7.7915C9.9878 7.7915 9.16699 8.61232 9.16699 9.62484C9.16699 10.6374 9.9878 11.4582 11.0003 11.4582Z" stroke="#292D32" stroke-width="1.5" stroke-miterlimit="10" stroke-linecap="round" stroke-linejoin="round"/>
<path d="M11 11.4585V14.2085" stroke="#292D32" stroke-width="1.5" stroke-miterlimit="10" stroke-linecap="round" stroke-linejoin="round"/>
</svg>
