<svg width="24" height="24" viewBox="0 0 24 24" fill="none" xmlns="http://www.w3.org/2000/svg">
<path d="M11.54 13.05C11.535 13.06 11.53 13.0675 11.525 13.075C11.52 13.0825 11.515 13.09 11.51 13.1C11.42 13.25 11.33 13.42 11.26 13.6C11.255 13.615 11.2475 13.6275 11.24 13.64C11.2325 13.6525 11.225 13.665 11.22 13.68C11.2144 13.6912 11.2119 13.7025 11.2091 13.7155C11.2068 13.7256 11.2044 13.7368 11.2 13.75C11.0881 14.0671 11.011 14.445 11.0011 14.9H11.1011M11.54 13.05L13.64 13.41C13.635 13.415 13.63 13.4225 13.625 13.43C13.62 13.4375 13.615 13.445 13.61 13.45C13.51 13.57 13.41 13.7 13.33 13.84M11.54 13.05C11.54 13.045 11.5425 13.0425 11.545 13.04M11.54 13.05L11.545 13.04M11.1011 14.9C11.1004 14.9329 11.1 14.9662 11.1 15H12.9C12.9 14.9662 12.9007 14.9329 12.902 14.9M11.1011 14.9C11.111 14.4563 11.1862 14.0896 11.2943 13.7833L11.2949 13.7816C11.3019 13.7606 11.3055 13.7423 11.3076 13.7329C11.3089 13.7272 11.3096 13.7248 11.3098 13.724M11.1011 14.9H12.902M12.902 14.9H13V15C13 14.58 13.11 14.23 13.28 13.93C13.29 13.915 13.2975 13.9 13.305 13.885C13.3125 13.87 13.32 13.855 13.33 13.84M12.902 14.9C12.9181 14.5052 13.0289 14.1703 13.193 13.8807L13.1966 13.8744L13.1968 13.8745C13.2028 13.8655 13.2077 13.8559 13.2156 13.8403L13.2163 13.8388C13.2231 13.8253 13.2323 13.8068 13.2448 13.7876M13.33 13.84L13.2432 13.7904C13.2437 13.7895 13.2442 13.7885 13.2448 13.7876M13.33 13.84L13.2468 13.7845C13.2461 13.7856 13.2454 13.7866 13.2448 13.7876M13.9018 12.9969C13.7809 13.1077 13.6684 13.2201 13.5653 13.3435C13.5594 13.3499 13.5548 13.3559 13.5516 13.3602C13.5477 13.3656 13.5441 13.3711 13.5418 13.3745L13.5377 13.3806M13.9018 12.9969C14.0517 12.8548 14.212 12.7149 14.3714 12.5758C14.4677 12.4918 14.5637 12.408 14.657 12.3241C14.9082 12.0983 15.1468 11.8656 15.3468 11.6042C15.7434 11.086 15.9919 10.45 15.861 9.524L15.8609 9.52366C15.6266 7.82485 14.2887 6.39206 12.5955 6.13894C10.5862 5.84639 8.81189 7.0847 8.27572 8.85893L8.27551 8.85964C8.11581 9.37423 8.50627 9.9 9.05 9.9H9.25C9.60839 9.9 9.90682 9.64613 10.036 9.29579C10.3719 8.36213 11.3688 7.72109 12.4509 7.95221C13.4495 8.1626 14.1836 9.1374 14.0997 10.1578C14.0462 10.8722 13.6108 11.3029 13.1111 11.7019C13.0195 11.7751 12.9257 11.8473 12.8312 11.92C12.4082 12.2455 11.9709 12.5821 11.6413 13.0733C11.6392 13.0784 11.6368 13.0831 11.6342 13.0874C11.6326 13.09 11.6311 13.0923 11.6296 13.0945L11.6294 13.0947C11.6216 13.1103 11.6137 13.1222 11.6087 13.1297L11.6082 13.1305C11.6032 13.138 11.6014 13.1409 11.5994 13.1447L11.596 13.1516L11.5957 13.1515C11.5079 13.2978 11.4212 13.4619 11.3539 13.6344C11.3454 13.6587 11.3336 13.6783 11.3268 13.6897L11.3257 13.6914C11.3176 13.705 11.3159 13.7086 11.3149 13.7116L11.3126 13.7184L11.3098 13.724M13.9018 12.9969C13.9016 12.997 13.9014 12.9972 13.9012 12.9974L13.97 13.07L13.9024 12.9963C13.9022 12.9965 13.902 12.9967 13.9018 12.9969ZM11.3098 13.724C11.3099 13.7238 11.3099 13.7237 11.3099 13.7237C11.3099 13.7236 11.3098 13.7241 11.3094 13.7247L11.3098 13.724ZM13.2448 13.7876C13.3288 13.6412 13.4324 13.5069 13.5332 13.386L13.5377 13.3806M13.5377 13.3806L13.5366 13.3821C13.5354 13.3838 13.5364 13.3821 13.5393 13.3793L13.539 13.379L13.5377 13.3806ZM11.55 13.03C11.8906 12.5171 12.3473 12.1658 12.7745 11.8373C13.3883 11.3652 13.941 10.9401 14 10.15C14.08 9.18 13.38 8.25 12.43 8.05L11.55 13.03ZM11.55 13.03C11.55 13.035 11.5475 13.0375 11.545 13.04M11.55 13.03L11.545 13.04M2.1 12C2.1 6.53523 6.53523 2.1 12 2.1C17.4648 2.1 21.9 6.53523 21.9 12C21.9 17.4648 17.4648 21.9 12 21.9C6.53523 21.9 2.1 17.4648 2.1 12ZM3.9 12C3.9 16.4652 7.53477 20.1 12 20.1C16.4652 20.1 20.1 16.4652 20.1 12C20.1 7.53477 16.4652 3.9 12 3.9C7.53477 3.9 3.9 7.53477 3.9 12ZM12.9 16.1V17.9H11.1V16.1H12.9Z" fill="#292D32" stroke="#F9F7FD" stroke-width="0.2"/>
</svg>
