<svg width="10" height="10" viewBox="0 0 10 10" fill="none" xmlns="http://www.w3.org/2000/svg">
<path d="M0.500014 2.96451L0.50001 2.96307C0.499125 2.6578 0.557735 2.35548 0.672357 2.07342C0.786975 1.79136 0.955281 1.53528 1.16739 1.31964C1.37949 1.10401 1.63121 0.933063 1.90804 0.816279C2.18472 0.699559 2.48121 0.639157 2.78066 0.638372C3.13312 0.638241 3.48092 0.721775 3.79612 0.882533C4.11149 1.04337 4.38563 1.27715 4.59614 1.56547L4.99889 2.11708L5.40303 1.56649C5.68956 1.17613 6.09012 0.888347 6.54676 0.743222C7.00334 0.598118 7.49345 0.60276 7.94729 0.756514C8.40121 0.91029 8.79641 1.20566 9.07568 1.60144C9.35501 1.9973 9.50378 2.47303 9.49993 2.96056L9.49991 2.96056V2.96441C9.49958 4.56972 8.76723 5.8585 7.83848 6.82079C6.90869 7.78416 5.81135 8.38779 5.15765 8.61578C5.05446 8.645 4.94543 8.645 4.84224 8.61578C4.18821 8.38779 3.09068 7.78416 2.16089 6.82079C1.23216 5.85852 0.500012 4.56979 0.500014 2.96451Z" stroke="#4748C8"/>
</svg>
