<svg width="18" height="18" viewBox="0 0 18 18" fill="none" xmlns="http://www.w3.org/2000/svg">
<path d="M17.1 0.9H14.1498C13.8375 0.3645 13.2633 0 12.6 0H5.4C4.7367 0 4.1625 0.3645 3.8502 0.9H0.9C0.661305 0.9 0.432386 0.994821 0.263604 1.1636C0.0948211 1.33239 0 1.5613 0 1.8V4.536C0 5.3595 0.369 6.129 1.0134 6.6438L4.7736 9.6516C5.60161 10.6954 6.7864 11.3962 8.1 11.619V13.5H6.3C6.0613 13.5 5.83238 13.5948 5.6636 13.7636C5.49482 13.9324 5.4 14.1613 5.4 14.4V16.2H4.5V18H13.5V16.2H12.6V14.4C12.6 14.1613 12.5052 13.9324 12.3364 13.7636C12.1676 13.5948 11.9387 13.5 11.7 13.5H9.9V11.619C11.2137 11.3965 12.3986 10.6957 13.2264 9.6516L16.9875 6.6429C17.3041 6.39072 17.5597 6.07023 17.735 5.70539C17.9103 5.34054 18.0009 4.94078 18 4.536V1.8C18 1.5613 17.9052 1.33239 17.7364 1.1636C17.5676 0.994821 17.3387 0.9 17.1 0.9ZM10.8 16.2H7.2V15.3H10.8V16.2ZM2.1384 5.2389C2.03272 5.15476 1.94741 5.04785 1.88882 4.92615C1.83022 4.80444 1.79986 4.67108 1.8 4.536V2.7H3.6V6.3C3.6 6.3378 3.6045 6.3747 3.6054 6.4125L2.1384 5.2389ZM9 9.9C7.0146 9.9 5.4 8.2854 5.4 6.3V1.8H12.6V6.3C12.6 8.2854 10.9854 9.9 9 9.9ZM16.2 4.536C16.2 4.8096 16.0767 5.067 15.8625 5.2389L14.3946 6.4134C14.3955 6.3747 14.4 6.3378 14.4 6.3V2.7H16.2V4.536Z" fill="black"/>
</svg>
