<svg width="18" height="19" viewBox="0 0 18 19" fill="none" xmlns="http://www.w3.org/2000/svg">
<path d="M8.97533 18.1111C8.59543 18.1111 8.28711 17.8028 8.28711 17.4229V9.16429C8.28711 8.7844 8.59543 8.47607 8.97533 8.47607C9.35523 8.47607 9.66355 8.7844 9.66355 9.16429V17.4229C9.66355 17.8028 9.35523 18.1111 8.97533 18.1111Z" fill="black"/>
<path d="M2.78392 17.4225C2.40403 17.4225 2.0957 17.1142 2.0957 16.7343V13.2932C2.0957 12.9133 2.40403 12.605 2.78392 12.605C3.16382 12.605 3.47214 12.9133 3.47214 13.2932V16.7343C3.47214 17.1142 3.16382 17.4225 2.78392 17.4225Z" fill="black"/>
<path d="M15.1687 16.0461C14.7888 16.0461 14.4805 15.7378 14.4805 15.3579V13.2932C14.4805 12.9133 14.7888 12.605 15.1687 12.605C15.5486 12.605 15.8569 12.9133 15.8569 13.2932V15.3579C15.8569 15.7378 15.5486 16.0461 15.1687 16.0461Z" fill="black"/>
<path d="M12.7765 2.76182C12.7139 2.56912 12.5349 2.44043 12.3326 2.44043H12.3312L10.1035 2.44524L9.42143 0.324151C9.35949 0.13145 9.17987 0 8.97684 0C8.77382 0 8.59419 0.130762 8.53225 0.324151L7.84954 2.44593L5.62246 2.44043H5.62109C5.41875 2.44043 5.23981 2.56912 5.17718 2.76182C5.11456 2.95453 5.18338 3.16512 5.34786 3.28418L7.15375 4.58836L6.45934 6.70463C6.39602 6.89733 6.46484 7.10862 6.62864 7.22768C6.71054 7.28687 6.80689 7.31715 6.90324 7.31715C7.00028 7.31715 7.09663 7.28687 7.17921 7.22699L8.97684 5.91249L10.7752 7.22699C10.8571 7.28687 10.9541 7.31715 11.0504 7.31715C11.1468 7.31715 11.2432 7.28755 11.325 7.22768C11.4888 7.10862 11.5577 6.89733 11.4944 6.70394L10.8006 4.58767L12.6065 3.28349C12.7703 3.16512 12.8391 2.95453 12.7765 2.76182Z" fill="black"/>
<path d="M5.64162 7.81228C5.59551 7.66982 5.46268 7.57415 5.31265 7.57415H5.31196L3.66299 7.57759L3.15783 6.00777C3.11172 5.86462 2.9789 5.76758 2.82887 5.76758C2.67883 5.76758 2.54601 5.86462 2.4999 6.00708L1.99474 7.57759L0.346459 7.57415C0.197115 7.57415 0.0636008 7.66982 0.0168018 7.81228C-0.0293089 7.95474 0.0216192 8.11096 0.143434 8.19906L1.47927 9.16394L0.965168 10.7303C0.918369 10.8728 0.969297 11.0297 1.09042 11.1178C1.15099 11.1618 1.22256 11.1839 1.29345 11.1839C1.36502 11.1839 1.4366 11.1618 1.49716 11.1171L2.82818 10.144L4.15919 11.1164C4.21976 11.1612 4.29133 11.1832 4.36291 11.1832C4.43448 11.1832 4.50537 11.1612 4.56593 11.1171C4.68706 11.029 4.73799 10.8721 4.69119 10.7296L4.17709 9.16325L5.51361 8.19768C5.6368 8.11028 5.68773 7.95474 5.64162 7.81228Z" fill="black"/>
<path d="M17.9841 7.81228C17.938 7.66982 17.8052 7.57415 17.6551 7.57415L16.0055 7.57759L15.5003 6.00777C15.4542 5.86462 15.3214 5.76758 15.1714 5.76758C15.0213 5.76758 14.8885 5.86462 14.8424 6.00708L14.3372 7.57759L12.6883 7.57415C12.5389 7.57415 12.4054 7.66982 12.3586 7.81228C12.3125 7.95474 12.3634 8.11096 12.4852 8.19906L13.8218 9.16394L13.3077 10.7303C13.2609 10.8728 13.3118 11.0297 13.4329 11.1178C13.4935 11.1618 13.565 11.1839 13.6359 11.1839C13.7075 11.1839 13.7791 11.1618 13.8396 11.1171L15.1714 10.144L16.5024 11.1164C16.5629 11.1612 16.6345 11.1832 16.7061 11.1832C16.7777 11.1832 16.8485 11.1612 16.9091 11.1171C17.0302 11.029 17.0812 10.8721 17.0344 10.7296L16.5203 9.16325L17.8568 8.19768C17.9793 8.11028 18.0302 7.95474 17.9841 7.81228Z" fill="black"/>
</svg>
